<svg width="131" height="131" viewBox="0 0 131 131" fill="none" xmlns="http://www.w3.org/2000/svg">
<g id="compound">
<mask id="path-1-inside-1" fill="white">
<path fill-rule="evenodd" clip-rule="evenodd" d="M101 0H0V101H30V131H131V30H101V0ZM95 66.5C95 82.7924 81.7924 96 65.5 96C49.2076 96 36 82.7924 36 66.5C36 50.2076 49.2076 37 65.5 37C81.7924 37 95 50.2076 95 66.5Z"/>
</mask>
<path fill-rule="evenodd" clip-rule="evenodd" d="M101 0H0V101H30V131H131V30H101V0ZM95 66.5C95 82.7924 81.7924 96 65.5 96C49.2076 96 36 82.7924 36 66.5C36 50.2076 49.2076 37 65.5 37C81.7924 37 95 50.2076 95 66.5Z" fill="#DADADA"/>
<path d="M0 0V-1H-1V0H0ZM101 0H102V-1H101V0ZM0 101H-1V102H0V101ZM131 30H132V29H131V30ZM131 131V132H132V131H131ZM30 131H29V132H30V131ZM30 101H31V100H30V101ZM101 30H100V31H101V30ZM0 1H101V-1H0V1ZM1 101V0H-1V101H1ZM130 30V131H132V30H130ZM131 130H30V132H131V130ZM31 131V101H29V131H31ZM30 100H0V102H30V100ZM101 31H131V29H101V31ZM100 0V30H102V0H100ZM94 66.5C94 82.2401 81.2401 95 65.5 95V97C82.3447 97 96 83.3447 96 66.5H94ZM65.5 95C49.7599 95 37 82.2401 37 66.5H35C35 83.3447 48.6553 97 65.5 97V95ZM37 66.5C37 50.7599 49.7599 38 65.5 38V36C48.6553 36 35 49.6553 35 66.5H37ZM65.5 38C81.2401 38 94 50.7599 94 66.5H96C96 49.6553 82.3447 36 65.5 36V38Z" fill="black" mask="url(#path-1-inside-1)"/>
</g>
</svg>
