<svg width="131" height="131" viewBox="0 0 131 131" version="2.0" xmlns="http://www.w3.org/2000/svg" xmlns:xlink="http://www.w3.org/1999/xlink" xmlns:figma="http://www.figma.com/figma/ns">
<title>compound.svg</title>
<desc>Created using Figma 0.90</desc>
<g id="Canvas" transform="translate(19 65)" figma:type="canvas">
<g id="compound" style="mix-blend-mode:normal;" figma:type="vector-operation">
<use xlink:href="#path0_fill" transform="translate(-19 -65)" fill="#DADADA" style="mix-blend-mode:normal;"/>
<mask id="mask0_outline_ins">
<use xlink:href="#path0_fill" fill="white" transform="translate(-19 -65)"/>
</mask>
<g mask="url(#mask0_outline_ins)">
<use xlink:href="#path1_stroke_2x" transform="translate(-19 -65)" style="mix-blend-mode:normal;"/>
</g>
</g>
</g>
<defs>
<path id="path0_fill" fill-rule="evenodd" d="M 0 0L 101 0L 101 30L 131 30L 131 131L 30 131L 30 101L 0 101L 0 0ZM 65.5 96C 81.7924 96 95 82.7924 95 66.5C 95 50.2076 81.7924 37 65.5 37C 49.2076 37 36 50.2076 36 66.5C 36 82.7924 49.2076 96 65.5 96Z"/>
<path id="path1_stroke_2x" d="M 101 0L 102 0L 102 -1L 101 -1L 101 0ZM 0 0L 0 -1L -1 -1L -1 0L 0 0ZM 101 30L 100 30L 100 31L 101 31L 101 30ZM 131 30L 132 30L 132 29L 131 29L 131 30ZM 131 131L 131 132L 132 132L 132 131L 131 131ZM 30 131L 29 131L 29 132L 30 132L 30 131ZM 30 101L 31 101L 31 100L 30 100L 30 101ZM 0 101L -1 101L -1 102L 0 102L 0 101ZM 101 -1L 0 -1L 0 1L 101 1L 101 -1ZM 102 30L 102 0L 100 0L 100 30L 102 30ZM 131 29L 101 29L 101 31L 131 31L 131 29ZM 132 131L 132 30L 130 30L 130 131L 132 131ZM 30 132L 131 132L 131 130L 30 130L 30 132ZM 29 101L 29 131L 31 131L 31 101L 29 101ZM 0 102L 30 102L 30 100L 0 100L 0 102ZM -1 0L -1 101L 1 101L 1 0L -1 0ZM 94 66.5C 94 82.2401 81.2401 95 65.5 95L 65.5 97C 82.3447 97 96 83.3447 96 66.5L 94 66.5ZM 65.5 38C 81.2401 38 94 50.7599 94 66.5L 96 66.5C 96 49.6553 82.3447 36 65.5 36L 65.5 38ZM 37 66.5C 37 50.7599 49.7599 38 65.5 38L 65.5 36C 48.6553 36 35 49.6553 35 66.5L 37 66.5ZM 65.5 95C 49.7599 95 37 82.2401 37 66.5L 35 66.5C 35 83.3447 48.6553 97 65.5 97L 65.5 95Z"/>
</defs>
</svg>
