<svg width="100" height="100" viewBox="0 0 100 100" fill="none" xmlns="http://www.w3.org/2000/svg">
<g id="donut">
<mask id="path-1-inside-1" fill="white">
<path fill-rule="evenodd" clip-rule="evenodd" d="M50 100C77.6142 100 100 77.6142 100 50C100 22.3858 77.6142 0 50 0C22.3858 0 0 22.3858 0 50C0 77.6142 22.3858 100 50 100ZM70 50C70 61.0457 61.0457 70 50 70C38.9543 70 30 61.0457 30 50C30 38.9543 38.9543 30 50 30C61.0457 30 70 38.9543 70 50Z"/>
</mask>
<path fill-rule="evenodd" clip-rule="evenodd" d="M50 100C77.6142 100 100 77.6142 100 50C100 22.3858 77.6142 0 50 0C22.3858 0 0 22.3858 0 50C0 77.6142 22.3858 100 50 100ZM70 50C70 61.0457 61.0457 70 50 70C38.9543 70 30 61.0457 30 50C30 38.9543 38.9543 30 50 30C61.0457 30 70 38.9543 70 50Z" fill="#DADADA"/>
<path d="M99 50C99 77.062 77.062 99 50 99V101C78.1665 101 101 78.1665 101 50H99ZM50 99C22.938 99 1 77.062 1 50H-1C-1 78.1665 21.8335 101 50 101V99ZM1 50C1 22.938 22.938 1 50 1V-1C21.8335 -1 -1 21.8335 -1 50H1ZM50 1C77.062 1 99 22.938 99 50H101C101 21.8335 78.1665 -1 50 -1V1ZM69 50C69 60.4934 60.4934 69 50 69V71C61.598 71 71 61.598 71 50H69ZM50 69C39.5066 69 31 60.4934 31 50H29C29 61.598 38.402 71 50 71V69ZM31 50C31 39.5066 39.5066 31 50 31V29C38.402 29 29 38.402 29 50H31ZM50 31C60.4934 31 69 39.5066 69 50H71C71 38.402 61.598 29 50 29V31Z" fill="black" mask="url(#path-1-inside-1)"/>
</g>
</svg>
