<svg width="100" height="100" viewBox="0 0 100 100" version="2.0" xmlns="http://www.w3.org/2000/svg" xmlns:xlink="http://www.w3.org/1999/xlink" xmlns:figma="http://www.figma.com/figma/ns">
<title>donut</title>
<desc>Created using Figma 0.90</desc>
<g id="Canvas" transform="translate(109 261)" figma:type="canvas">
<g id="donut" style="mix-blend-mode:normal;" figma:type="vector-operation">
<use xlink:href="#path0_fill" transform="translate(-109 -261)" fill="#DADADA" style="mix-blend-mode:normal;"/>
<mask id="mask0_outline_ins">
<use xlink:href="#path0_fill" fill="white" transform="translate(-109 -261)"/>
</mask>
<g mask="url(#mask0_outline_ins)">
<use xlink:href="#path1_stroke_2x" transform="translate(-109 -261)" style="mix-blend-mode:normal;"/>
</g>
</g>
</g>
<defs>
<path id="path0_fill" fill-rule="evenodd" d="M 50 100C 77.6142 100 100 77.6142 100 50C 100 22.3858 77.6142 0 50 0C 22.3858 0 0 22.3858 0 50C 0 77.6142 22.3858 100 50 100ZM 70 50C 70 61.0457 61.0457 70 50 70C 38.9543 70 30 61.0457 30 50C 30 38.9543 38.9543 30 50 30C 61.0457 30 70 38.9543 70 50Z"/>
<path id="path1_stroke_2x" d="M 99 50C 99 77.062 77.062 99 50 99L 50 101C 78.1665 101 101 78.1665 101 50L 99 50ZM 50 99C 22.938 99 1 77.062 1 50L -1 50C -1 78.1665 21.8335 101 50 101L 50 99ZM 1 50C 1 22.938 22.938 1 50 1L 50 -1C 21.8335 -1 -1 21.8335 -1 50L 1 50ZM 50 1C 77.062 1 99 22.938 99 50L 101 50C 101 21.8335 78.1665 -1 50 -1L 50 1ZM 69 50C 69 60.4934 60.4934 69 50 69L 50 71C 61.598 71 71 61.598 71 50L 69 50ZM 50 69C 39.5066 69 31 60.4934 31 50L 29 50C 29 61.598 38.402 71 50 71L 50 69ZM 31 50C 31 39.5066 39.5066 31 50 31L 50 29C 38.402 29 29 38.402 29 50L 31 50ZM 50 31C 60.4934 31 69 39.5066 69 50L 71 50C 71 38.402 61.598 29 50 29L 50 31Z"/>
</defs>
</svg>
