<svg width="143" height="143" viewBox="0 0 143 143" version="1.1" xmlns="http://www.w3.org/2000/svg" xmlns:xlink="http://www.w3.org/1999/xlink">
<title>fractured</title>
<desc>Created using Figma</desc>
<g id="Canvas" transform="translate(322 77)">
<g id="fractured">
<use xlink:href="#path0_fill" transform="translate(-322 -77)" fill="#DADADA"/>
<mask id="mask0_outline_ins">
<use xlink:href="#path0_fill" fill="white" transform="translate(-322 -77)"/>
</mask>
<g mask="url(#mask0_outline_ins)">
<use xlink:href="#path1_stroke_2x" transform="translate(-322 -77)"/>
</g>
</g>
</g>
<defs>
<path id="path0_fill" d="M 143 143L 143 0L 103 0L 23.5 0L 0 0L 0 8L 0 43.5L 44.5 43.5L 44.5 17L 23.5 8L 103 8L 103 17L 44.5 17L 89.5 74.5635L 113.223 41.5L 107.431 97.5L 89.5 74.5635L 43 110.12L 0 143L 30 143L 56 125.118L 71.5 143L 143 143Z"/>
<path id="path1_stroke_2x" d="M 143.406 0.291486L 143.698 -0.114761L 142.885 -0.697732L 142.594 -0.291486L 143.406 0.291486ZM 142.606 143.308L 142.914 143.702L 143.702 143.086L 143.394 142.692L 142.606 143.308ZM -0.5 143L -0.5 143.5L 0.5 143.5L 0.5 143L -0.5 143ZM 0.5 43.5L 0.5 43L -0.5 43L -0.5 43.5L 0.5 43.5ZM 44.9999 43.5113L 45.0111 43.0114L 44.0114 42.9889L 44.0001 43.4887L 44.9999 43.5113ZM 103.5 0L 103.5 -0.5L 102.5 -0.5L 102.5 0L 103.5 0ZM 43 110.12L 42.5001 110.109L 42.4958 110.302L 42.6222 110.447L 43 110.12ZM 71.5 143.5L 72 143.5L 72 142.5L 71.5 142.5L 71.5 143.5ZM 30 142.5L 29.5 142.5L 29.5 143.5L 30 143.5L 30 142.5ZM 56 125.118L 55.6222 125.445L 55.8842 125.748L 56.2365 125.558L 56 125.118ZM 107.431 97.5L 107.824 97.1921L 107.565 96.8602L 107.194 97.0595L 107.431 97.5ZM 112.817 41.2085L 112.526 41.6148L 113.338 42.1977L 113.63 41.7915L 112.817 41.2085ZM 0 7.5L -0.5 7.5L -0.5 8.5L 0 8.5L 0 7.5ZM 102.5 8L 102.5 8.5L 103.5 8.5L 103.5 8L 102.5 8ZM 23.5 8L 23.5 8.5L 24 8.5L 24 8L 23.5 8ZM 24 0L 24 -0.5L 23 -0.5L 23 0L 24 0ZM 0.5 143L 0.5 43.5L -0.5 43.5L -0.5 143L 0.5 143ZM 44.0001 43.4887L 42.5001 110.109L 43.4999 110.131L 44.9999 43.5113L 44.0001 43.4887ZM 71.5 142.5L 30 142.5L 30 143.5L 71.5 143.5L 71.5 142.5ZM 42.6222 110.447L 55.6222 125.445L 56.3778 124.79L 43.3778 109.792L 42.6222 110.447ZM 107.037 97.8079L 142.606 143.308L 143.394 142.692L 107.824 97.1921L 107.037 97.8079ZM 107.194 97.0595L 55.7635 124.677L 56.2365 125.558L 107.667 97.9405L 107.194 97.0595ZM 142.594 -0.291486L 112.817 41.2085L 113.63 41.7915L 143.406 0.291486L 142.594 -0.291486ZM 103.5 8L 103.5 0L 102.5 0L 102.5 8L 103.5 8ZM 0 8.5L 23.5 8.5L 23.5 7.5L 0 7.5L 0 8.5ZM 24 8L 24 0L 23 0L 23 8L 24 8ZM 0 0L 0 -1L -1 -1L -1 0L 0 0ZM 143 0L 144 0L 144 -1L 143 -1L 143 0ZM 143 143L 143 144L 144 144L 144 143L 143 143ZM 0 143L -0.607424 142.206L -2.95408 144L 0 144L 0 143ZM 0 43.5L -1 43.5L -1 44.5L 0 44.5L 0 43.5ZM 44.5 43.5L 44.5 44.5L 45.5 44.5L 45.5 43.5L 44.5 43.5ZM 103 17L 103 18L 104 18L 104 17L 103 17ZM 43 110.12L 43.6074 110.914L 43 110.12ZM 71.5 143L 70.7444 143.655L 71.0434 144L 71.5 144L 71.5 143ZM 30 143L 30 144L 30.3107 144L 30.5667 143.824L 30 143ZM 56 125.118L 56.7556 124.463L 56.17 123.787L 55.4333 124.294L 56 125.118ZM 107.431 97.5L 106.643 98.1159L 108.17 100.07L 108.425 97.6029L 107.431 97.5ZM 113.223 41.5L 114.218 41.6029L 114.605 37.8585L 112.411 40.917L 113.223 41.5ZM 103 8L 104 8L 104 7L 103 7L 103 8ZM 23.5 8L 23.5 7L 23.1061 8.91914L 23.5 8ZM 142 0L 142 143L 144 143L 144 0L 142 0ZM 0 44.5L 44.5 44.5L 44.5 42.5L 0 42.5L 0 44.5ZM 45.5 43.5L 45.5 17L 43.5 17L 43.5 43.5L 45.5 43.5ZM 44.5 18L 103 18L 103 16L 44.5 16L 44.5 18ZM 103 1L 143 1L 143 -1L 103 -1L 103 1ZM 43.7122 17.6159L 88.7122 75.1793L 90.2878 73.9476L 45.2878 16.3841L 43.7122 17.6159ZM 0.607424 143.794L 43.6074 110.914L 42.3926 109.325L -0.607424 142.206L 0.607424 143.794ZM 43.6074 110.914L 90.1074 75.3578L 88.8926 73.7691L 42.3926 109.325L 43.6074 110.914ZM 143 142L 71.5 142L 71.5 144L 143 144L 143 142ZM 30 142L 0 142L 0 144L 30 144L 30 142ZM 55.2444 125.773L 70.7444 143.655L 72.2556 142.345L 56.7556 124.463L 55.2444 125.773ZM 30.5667 143.824L 56.5667 125.942L 55.4333 124.294L 29.4333 142.176L 30.5667 143.824ZM 88.7122 75.1793L 106.643 98.1159L 108.218 96.8841L 90.2878 73.9476L 88.7122 75.1793ZM 112.411 40.917L 88.6875 73.9805L 90.3125 75.1464L 114.036 42.083L 112.411 40.917ZM 112.229 41.3971L 106.436 97.3971L 108.425 97.6029L 114.218 41.6029L 112.229 41.3971ZM 1 43.5L 1 8L -1 8L -1 43.5L 1 43.5ZM 1 8L 1 0L -1 0L -1 8L 1 8ZM 104 17L 104 8L 102 8L 102 17L 104 17ZM 23.5 9L 103 9L 103 7L 23.5 7L 23.5 9ZM 44.8939 16.0809L 23.8939 7.08085L 23.1061 8.91914L 44.1061 17.9191L 44.8939 16.0809ZM 0 1L 23.5 1L 23.5 -1L 0 -1L 0 1ZM 23.5 1L 103 1L 103 -1L 23.5 -1L 23.5 1Z"/>
</defs>
</svg>
