<svg width="828" height="143" viewBox="0 0 828 143" fill="none" xmlns="http://www.w3.org/2000/svg">
<g id="group">
<rect id="rectangle" x="133.5" y="43.5" width="99" height="99" fill="#DADADA" stroke="black" stroke-linecap="square"/>
<circle id="circle" cx="313" cy="93" r="49.5" fill="#DADADA" stroke="black" stroke-linecap="square"/>
<g id="donut">
<mask id="path-3-inside-1" fill="white">
<path fill-rule="evenodd" clip-rule="evenodd" d="M617 143C644.614 143 667 120.614 667 93C667 65.3858 644.614 43 617 43C589.386 43 567 65.3858 567 93C567 120.614 589.386 143 617 143ZM637 93C637 104.046 628.046 113 617 113C605.954 113 597 104.046 597 93C597 81.9543 605.954 73 617 73C628.046 73 637 81.9543 637 93Z"/>
</mask>
<path fill-rule="evenodd" clip-rule="evenodd" d="M617 143C644.614 143 667 120.614 667 93C667 65.3858 644.614 43 617 43C589.386 43 567 65.3858 567 93C567 120.614 589.386 143 617 143ZM637 93C637 104.046 628.046 113 617 113C605.954 113 597 104.046 597 93C597 81.9543 605.954 73 617 73C628.046 73 637 81.9543 637 93Z" fill="#DADADA"/>
<path d="M666 93C666 120.062 644.062 142 617 142V144C645.167 144 668 121.167 668 93H666ZM617 142C589.938 142 568 120.062 568 93H566C566 121.167 588.833 144 617 144V142ZM568 93C568 65.938 589.938 44 617 44V42C588.833 42 566 64.8335 566 93H568ZM617 44C644.062 44 666 65.938 666 93H668C668 64.8335 645.167 42 617 42V44ZM636 93C636 103.493 627.493 112 617 112V114C628.598 114 638 104.598 638 93H636ZM617 112C606.507 112 598 103.493 598 93H596C596 104.598 605.402 114 617 114V112ZM598 93C598 82.5066 606.507 74 617 74V72C605.402 72 596 81.402 596 93H598ZM617 74C627.493 74 636 82.5066 636 93H638C638 81.402 628.598 72 617 72V74Z" fill="black" mask="url(#path-3-inside-1)"/>
</g>
<path id="fractured" d="M483.411 75.2611L483.517 75.3972L501.037 97.8079L501.8 98.7848L501.928 97.5514L507.721 41.5514L507.914 39.6793L506.817 41.2085L483.483 73.7297L439.526 17.5H497H497.5V17V8V7.5H497H417.5L417.303 8.45957L438 17.3297V43H394.5V8V0.5H417.5H497H536.5V142.5H465.728L450.378 124.79L450.085 124.453L449.717 124.706L423.845 142.5H395.477L437.304 110.517L483.411 75.2611Z" fill="#DADADA" stroke="black" stroke-linecap="square"/>
<g id="compound">
<mask id="path-6-inside-2" fill="white">
<path fill-rule="evenodd" clip-rule="evenodd" d="M798 12H697V113H727V143H828V42H798V12ZM792 78.5C792 94.7924 778.792 108 762.5 108C746.208 108 733 94.7924 733 78.5C733 62.2076 746.208 49 762.5 49C778.792 49 792 62.2076 792 78.5Z"/>
</mask>
<path fill-rule="evenodd" clip-rule="evenodd" d="M798 12H697V113H727V143H828V42H798V12ZM792 78.5C792 94.7924 778.792 108 762.5 108C746.208 108 733 94.7924 733 78.5C733 62.2076 746.208 49 762.5 49C778.792 49 792 62.2076 792 78.5Z" fill="#DADADA"/>
<path d="M697 12V11H696V12H697ZM798 12H799V11H798V12ZM697 113H696V114H697V113ZM828 42H829V41H828V42ZM828 143V144H829V143H828ZM727 143H726V144H727V143ZM727 113H728V112H727V113ZM798 42H797V43H798V42ZM697 13H798V11H697V13ZM698 113V12H696V113H698ZM827 42V143H829V42H827ZM828 142H727V144H828V142ZM728 143V113H726V143H728ZM727 112H697V114H727V112ZM798 43H828V41H798V43ZM797 12V42H799V12H797ZM791 78.5C791 94.2401 778.24 107 762.5 107V109C779.345 109 793 95.3447 793 78.5H791ZM762.5 107C746.76 107 734 94.2401 734 78.5H732C732 95.3447 745.655 109 762.5 109V107ZM734 78.5C734 62.7599 746.76 50 762.5 50V48C745.655 48 732 61.6553 732 78.5H734ZM762.5 50C778.24 50 791 62.7599 791 78.5H793C793 61.6553 779.345 48 762.5 48V50Z" fill="black" mask="url(#path-6-inside-2)"/>
</g>
<path id="polygon" d="M51.5 54L103 143H0L51.5 54Z" fill="#DADADA"/>
</g>
</svg>
