<svg width="828" height="143" viewBox="0 0 828 143" version="2.0" xmlns="http://www.w3.org/2000/svg" xmlns:xlink="http://www.w3.org/1999/xlink" xmlns:figma="http://www.figma.com/figma/ns">
<title>group</title>
<desc>Created using Figma 0.90</desc>
<g id="Canvas" transform="translate(716 77)" figma:type="canvas">
<g id="group" style="mix-blend-mode:normal;" figma:type="group">
<g id="rectangle" style="mix-blend-mode:normal;" figma:type="rounded-rectangle">
<use xlink:href="#path0_fill" transform="translate(-583 -34)" fill="#DADADA" style="mix-blend-mode:normal;"/>
<mask id="mask0_outline_ins">
<use xlink:href="#path0_fill" fill="white" transform="translate(-583 -34)"/>
</mask>
<g mask="url(#mask0_outline_ins)">
<use xlink:href="#path1_stroke_2x" transform="translate(-583 -34)" style="mix-blend-mode:normal;"/>
</g>
</g>
<g id="circle" style="mix-blend-mode:normal;" figma:type="ellipse">
<use xlink:href="#path2_fill" transform="translate(-453 -34)" fill="#DADADA" style="mix-blend-mode:normal;"/>
<mask id="mask1_outline_ins">
<use xlink:href="#path2_fill" fill="white" transform="translate(-453 -34)"/>
</mask>
<g mask="url(#mask1_outline_ins)">
<use xlink:href="#path3_stroke_2x" transform="translate(-453 -34)" style="mix-blend-mode:normal;"/>
</g>
</g>
<g id="donut" style="mix-blend-mode:normal;" figma:type="vector-operation">
<use xlink:href="#path4_fill" transform="translate(-149 -34)" fill="#DADADA" style="mix-blend-mode:normal;"/>
<mask id="mask2_outline_ins">
<use xlink:href="#path4_fill" fill="white" transform="translate(-149 -34)"/>
</mask>
<g mask="url(#mask2_outline_ins)">
<use xlink:href="#path5_stroke_2x" transform="translate(-149 -34)" style="mix-blend-mode:normal;"/>
</g>
</g>
<g id="fractured" style="mix-blend-mode:normal;" figma:type="vector">
<use xlink:href="#path6_fill" transform="translate(-322 -77)" fill="#DADADA" style="mix-blend-mode:normal;"/>
<mask id="mask3_outline_ins">
<use xlink:href="#path6_fill" fill="white" transform="translate(-322 -77)"/>
</mask>
<g mask="url(#mask3_outline_ins)">
<use xlink:href="#path7_stroke_2x" transform="translate(-322 -77)" style="mix-blend-mode:normal;"/>
</g>
</g>
<g id="compound" style="mix-blend-mode:normal;" figma:type="vector-operation">
<use xlink:href="#path8_fill" transform="translate(-19 -65)" fill="#DADADA" style="mix-blend-mode:normal;"/>
<mask id="mask4_outline_ins">
<use xlink:href="#path8_fill" fill="white" transform="translate(-19 -65)"/>
</mask>
<g mask="url(#mask4_outline_ins)">
<use xlink:href="#path9_stroke_2x" transform="translate(-19 -65)" style="mix-blend-mode:normal;"/>
</g>
</g>
<g id="polygon" style="mix-blend-mode:normal;" figma:type="vector">
<use xlink:href="#path10_fill" transform="translate(-716 -23)" fill="#DADADA" style="mix-blend-mode:normal;"/>
</g>
</g>
</g>
<defs>
<path id="path0_fill" d="M 0 0L 100 0L 100 100L 0 100L 0 0Z"/>
<path id="path1_stroke_2x" d="M 0 0L 0 -1L -1 -1L -1 0L 0 0ZM 100 0L 101 0L 101 -1L 100 -1L 100 0ZM 100 100L 100 101L 101 101L 101 100L 100 100ZM 0 100L -1 100L -1 101L 0 101L 0 100ZM 0 1L 100 1L 100 -1L 0 -1L 0 1ZM 99 0L 99 100L 101 100L 101 0L 99 0ZM 100 99L 0 99L 0 101L 100 101L 100 99ZM 1 100L 1 0L -1 0L -1 100L 1 100Z"/>
<path id="path2_fill" d="M 100 50C 100 77.6142 77.6142 100 50 100C 22.3858 100 0 77.6142 0 50C 0 22.3858 22.3858 0 50 0C 77.6142 0 100 22.3858 100 50Z"/>
<path id="path3_stroke_2x" d="M 99 50C 99 77.062 77.062 99 50 99L 50 101C 78.1665 101 101 78.1665 101 50L 99 50ZM 50 99C 22.938 99 1 77.062 1 50L -1 50C -1 78.1665 21.8335 101 50 101L 50 99ZM 1 50C 1 22.938 22.938 1 50 1L 50 -1C 21.8335 -1 -1 21.8335 -1 50L 1 50ZM 50 1C 77.062 1 99 22.938 99 50L 101 50C 101 21.8335 78.1665 -1 50 -1L 50 1Z"/>
<path id="path4_fill" fill-rule="evenodd" d="M 50 100C 77.6142 100 100 77.6142 100 50C 100 22.3858 77.6142 0 50 0C 22.3858 0 0 22.3858 0 50C 0 77.6142 22.3858 100 50 100ZM 70 50C 70 61.0457 61.0457 70 50 70C 38.9543 70 30 61.0457 30 50C 30 38.9543 38.9543 30 50 30C 61.0457 30 70 38.9543 70 50Z"/>
<path id="path5_stroke_2x" d="M 99 50C 99 77.062 77.062 99 50 99L 50 101C 78.1665 101 101 78.1665 101 50L 99 50ZM 50 99C 22.938 99 1 77.062 1 50L -1 50C -1 78.1665 21.8335 101 50 101L 50 99ZM 1 50C 1 22.938 22.938 1 50 1L 50 -1C 21.8335 -1 -1 21.8335 -1 50L 1 50ZM 50 1C 77.062 1 99 22.938 99 50L 101 50C 101 21.8335 78.1665 -1 50 -1L 50 1ZM 69 50C 69 60.4934 60.4934 69 50 69L 50 71C 61.598 71 71 61.598 71 50L 69 50ZM 50 69C 39.5066 69 31 60.4934 31 50L 29 50C 29 61.598 38.402 71 50 71L 50 69ZM 31 50C 31 39.5066 39.5066 31 50 31L 50 29C 38.402 29 29 38.402 29 50L 31 50ZM 50 31C 60.4934 31 69 39.5066 69 50L 71 50C 71 38.402 61.598 29 50 29L 50 31Z"/>
<path id="path6_fill" d="M 143 143L 143 0L 103 0L 23.5 0L 0 0L 0 8L 0 43.5L 44.5 43.5L 44.5 17L 23.5 8L 103 8L 103 17L 44.5 17L 89.5 74.5635L 113.223 41.5L 107.431 97.5L 89.5 74.5635L 43 110.12L 0 143L 30 143L 56 125.118L 71.5 143L 143 143Z"/>
<path id="path7_stroke_2x" d="M 143.406 0.291486L 143.698 -0.114761L 142.885 -0.697732L 142.594 -0.291486L 143.406 0.291486ZM 142.606 143.308L 142.914 143.702L 143.702 143.086L 143.394 142.692L 142.606 143.308ZM -0.5 143L -0.5 143.5L 0.5 143.5L 0.5 143L -0.5 143ZM 0.5 43.5L 0.5 43L -0.5 43L -0.5 43.5L 0.5 43.5ZM 44.9999 43.5113L 45.0111 43.0114L 44.0114 42.9889L 44.0001 43.4887L 44.9999 43.5113ZM 103.5 0L 103.5 -0.5L 102.5 -0.5L 102.5 0L 103.5 0ZM 43 110.12L 42.5001 110.109L 42.4958 110.302L 42.6222 110.447L 43 110.12ZM 71.5 143.5L 72 143.5L 72 142.5L 71.5 142.5L 71.5 143.5ZM 30 142.5L 29.5 142.5L 29.5 143.5L 30 143.5L 30 142.5ZM 56 125.118L 55.6222 125.445L 55.8842 125.748L 56.2365 125.558L 56 125.118ZM 107.431 97.5L 107.824 97.1921L 107.565 96.8602L 107.194 97.0595L 107.431 97.5ZM 112.817 41.2085L 112.526 41.6148L 113.338 42.1977L 113.63 41.7915L 112.817 41.2085ZM 0 7.5L -0.5 7.5L -0.5 8.5L 0 8.5L 0 7.5ZM 102.5 8L 102.5 8.5L 103.5 8.5L 103.5 8L 102.5 8ZM 23.5 8L 23.5 8.5L 24 8.5L 24 8L 23.5 8ZM 24 0L 24 -0.5L 23 -0.5L 23 0L 24 0ZM 0.5 143L 0.5 43.5L -0.5 43.5L -0.5 143L 0.5 143ZM 44.0001 43.4887L 42.5001 110.109L 43.4999 110.131L 44.9999 43.5113L 44.0001 43.4887ZM 71.5 142.5L 30 142.5L 30 143.5L 71.5 143.5L 71.5 142.5ZM 42.6222 110.447L 55.6222 125.445L 56.3778 124.79L 43.3778 109.792L 42.6222 110.447ZM 107.037 97.8079L 142.606 143.308L 143.394 142.692L 107.824 97.1921L 107.037 97.8079ZM 107.194 97.0595L 55.7635 124.677L 56.2365 125.558L 107.667 97.9405L 107.194 97.0595ZM 142.594 -0.291486L 112.817 41.2085L 113.63 41.7915L 143.406 0.291486L 142.594 -0.291486ZM 103.5 8L 103.5 0L 102.5 0L 102.5 8L 103.5 8ZM 0 8.5L 23.5 8.5L 23.5 7.5L 0 7.5L 0 8.5ZM 24 8L 24 0L 23 0L 23 8L 24 8ZM 0 0L 0 -1L -1 -1L -1 0L 0 0ZM 143 0L 144 0L 144 -1L 143 -1L 143 0ZM 143 143L 143 144L 144 144L 144 143L 143 143ZM 0 143L -0.607424 142.206L -2.95408 144L 0 144L 0 143ZM 0 43.5L -1 43.5L -1 44.5L 0 44.5L 0 43.5ZM 44.5 43.5L 44.5 44.5L 45.5 44.5L 45.5 43.5L 44.5 43.5ZM 103 17L 103 18L 104 18L 104 17L 103 17ZM 43 110.12L 43.6074 110.914L 43.6074 110.914L 43 110.12ZM 71.5 143L 70.7444 143.655L 71.0434 144L 71.5 144L 71.5 143ZM 30 143L 30 144L 30.3107 144L 30.5667 143.824L 30 143ZM 56 125.118L 56.7556 124.463L 56.17 123.787L 55.4333 124.294L 56 125.118ZM 107.431 97.5L 106.643 98.1159L 108.17 100.07L 108.425 97.6029L 107.431 97.5ZM 113.223 41.5L 114.218 41.6029L 114.605 37.8585L 112.411 40.917L 113.223 41.5ZM 103 8L 104 8L 104 7L 103 7L 103 8ZM 23.5 8L 23.5 7L 23.1061 8.91915L 23.5 8ZM 142 0L 142 143L 144 143L 144 0L 142 0ZM 0 44.5L 44.5 44.5L 44.5 42.5L 0 42.5L 0 44.5ZM 45.5 43.5L 45.5 17L 43.5 17L 43.5 43.5L 45.5 43.5ZM 44.5 18L 103 18L 103 16L 44.5 16L 44.5 18ZM 103 1L 143 1L 143 -1L 103 -1L 103 1ZM 43.7122 17.6159L 88.7122 75.1793L 90.2878 73.9476L 45.2878 16.3841L 43.7122 17.6159ZM 0.607424 143.794L 43.6074 110.914L 42.3926 109.325L -0.607424 142.206L 0.607424 143.794ZM 43.6074 110.914L 90.1074 75.3578L 88.8926 73.7691L 42.3926 109.325L 43.6074 110.914ZM 143 142L 71.5 142L 71.5 144L 143 144L 143 142ZM 30 142L 0 142L 0 144L 30 144L 30 142ZM 55.2444 125.773L 70.7444 143.655L 72.2556 142.345L 56.7556 124.463L 55.2444 125.773ZM 30.5667 143.824L 56.5667 125.942L 55.4333 124.294L 29.4333 142.176L 30.5667 143.824ZM 88.7122 75.1793L 106.643 98.1159L 108.218 96.8841L 90.2878 73.9476L 88.7122 75.1793ZM 112.411 40.917L 88.6875 73.9805L 90.3125 75.1464L 114.036 42.083L 112.411 40.917ZM 112.229 41.3971L 106.436 97.3971L 108.425 97.6029L 114.218 41.6029L 112.229 41.3971ZM 1 43.5L 1 8L -1 8L -1 43.5L 1 43.5ZM 1 8L 1 0L -1 0L -1 8L 1 8ZM 104 17L 104 8L 102 8L 102 17L 104 17ZM 23.5 9L 103 9L 103 7L 23.5 7L 23.5 9ZM 44.8939 16.0809L 23.8939 7.08085L 23.1061 8.91915L 44.1061 17.9191L 44.8939 16.0809ZM 0 1L 23.5 1L 23.5 -1L 0 -1L 0 1ZM 23.5 1L 103 1L 103 -1L 23.5 -1L 23.5 1Z"/>
<path id="path8_fill" fill-rule="evenodd" d="M 101 0L 0 0L 0 101L 30 101L 30 131L 131 131L 131 30L 101 30L 101 0ZM 95 66.5C 95 82.7924 81.7924 96 65.5 96C 49.2076 96 36 82.7924 36 66.5C 36 50.2076 49.2076 37 65.5 37C 81.7924 37 95 50.2076 95 66.5Z"/>
<path id="path9_stroke_2x" d="M 0 0L 0 -1L -1 -1L -1 0L 0 0ZM 101 0L 102 0L 102 -1L 101 -1L 101 0ZM 0 101L -1 101L -1 102L 0 102L 0 101ZM 131 30L 132 30L 132 29L 131 29L 131 30ZM 131 131L 131 132L 132 132L 132 131L 131 131ZM 30 131L 29 131L 29 132L 30 132L 30 131ZM 30 101L 31 101L 31 100L 30 100L 30 101ZM 101 30L 100 30L 100 31L 101 31L 101 30ZM 0 1L 101 1L 101 -1L 0 -1L 0 1ZM 1 101L 1 0L -1 0L -1 101L 1 101ZM 130 30L 130 131L 132 131L 132 30L 130 30ZM 131 130L 30 130L 30 132L 131 132L 131 130ZM 31 131L 31 101L 29 101L 29 131L 31 131ZM 30 100L 0 100L 0 102L 30 102L 30 100ZM 101 31L 131 31L 131 29L 101 29L 101 31ZM 100 0L 100 30L 102 30L 102 0L 100 0ZM 94 66.5C 94 82.2401 81.2401 95 65.5 95L 65.5 97C 82.3447 97 96 83.3447 96 66.5L 94 66.5ZM 65.5 95C 49.7599 95 37 82.2401 37 66.5L 35 66.5C 35 83.3447 48.6553 97 65.5 97L 65.5 95ZM 37 66.5C 37 50.7599 49.7599 38 65.5 38L 65.5 36C 48.6553 36 35 49.6553 35 66.5L 37 66.5ZM 65.5 38C 81.2401 38 94 50.7599 94 66.5L 96 66.5C 96 49.6553 82.3447 36 65.5 36L 65.5 38Z"/>
<path id="path10_fill" d="M 51.5 0L 103 89L 0 89L 51.5 0Z"/>
</defs>
</svg>
