<svg width="827" height="143" viewBox="0 0 827 143" fill="none" xmlns="http://www.w3.org/2000/svg">
<g id="nested-group">
<path id="polygon" d="M51.5 54L103 143H0L51.5 54Z" fill="#DADADA"/>
<g id="Group 1">
<rect id="rectangle" x="133.5" y="43.5" width="99" height="99" fill="#DADADA" stroke="black" stroke-linecap="square"/>
<circle id="circle" cx="313" cy="93" r="49.5" fill="#DADADA" stroke="black" stroke-linecap="square"/>
</g>
<path id="fractured" d="M506.707 41.6836L535.5 1.55453V141.549L500.949 97.3509L506.707 41.6836ZM500.8 98.7848L534.974 142.5H465H464.728L449.787 125.263L500.296 98.1398L500.8 98.7848ZM499.671 97.3403L449.116 124.488L449.085 124.453L436.726 110.194L482.411 75.2611L499.671 97.3403ZM435.93 110.803L448.256 125.023L422.845 142.5H422.5H394.477L435.93 110.803ZM505.817 41.2085L505.526 41.6148L482.483 73.7297L438.526 17.5H496H496.5V17V8.5V8V7.5V0.5H535.026L506.914 39.6793L505.817 41.2085ZM437 17.3297V43H393.5V8.5H416.397L437 17.3297ZM416 7.5H393.5V0.5H416V7.5ZM417 7.5V0.5H495.5V7.5H417Z" fill="#DADADA" stroke="black" stroke-linecap="square"/>
<g id="donut">
<mask id="path-5-inside-1" fill="white">
<path fill-rule="evenodd" clip-rule="evenodd" d="M616 143C643.614 143 666 120.614 666 93C666 65.3858 643.614 43 616 43C588.386 43 566 65.3858 566 93C566 120.614 588.386 143 616 143ZM616 113C627.046 113 636 104.046 636 93C636 81.9543 627.046 73 616 73C604.954 73 596 81.9543 596 93C596 104.046 604.954 113 616 113Z"/>
</mask>
<path fill-rule="evenodd" clip-rule="evenodd" d="M616 143C643.614 143 666 120.614 666 93C666 65.3858 643.614 43 616 43C588.386 43 566 65.3858 566 93C566 120.614 588.386 143 616 143ZM616 113C627.046 113 636 104.046 636 93C636 81.9543 627.046 73 616 73C604.954 73 596 81.9543 596 93C596 104.046 604.954 113 616 113Z" fill="#DADADA"/>
<path d="M665 93C665 120.062 643.062 142 616 142V144C644.167 144 667 121.167 667 93H665ZM616 44C643.062 44 665 65.938 665 93H667C667 64.8335 644.167 42 616 42V44ZM567 93C567 65.938 588.938 44 616 44V42C587.833 42 565 64.8335 565 93H567ZM616 142C588.938 142 567 120.062 567 93H565C565 121.167 587.833 144 616 144V142ZM635 93C635 103.493 626.493 112 616 112V114C627.598 114 637 104.598 637 93H635ZM616 74C626.493 74 635 82.5066 635 93H637C637 81.402 627.598 72 616 72V74ZM597 93C597 82.5066 605.507 74 616 74V72C604.402 72 595 81.402 595 93H597ZM616 112C605.507 112 597 103.493 597 93H595C595 104.598 604.402 114 616 114V112Z" fill="black" mask="url(#path-5-inside-1)"/>
</g>
<g id="compound">
<mask id="path-7-inside-2" fill="white">
<path fill-rule="evenodd" clip-rule="evenodd" d="M696 12H797V42H827V143H726V113H696V12ZM761.5 108C777.792 108 791 94.7924 791 78.5C791 62.2076 777.792 49 761.5 49C745.208 49 732 62.2076 732 78.5C732 94.7924 745.208 108 761.5 108Z"/>
</mask>
<path fill-rule="evenodd" clip-rule="evenodd" d="M696 12H797V42H827V143H726V113H696V12ZM761.5 108C777.792 108 791 94.7924 791 78.5C791 62.2076 777.792 49 761.5 49C745.208 49 732 62.2076 732 78.5C732 94.7924 745.208 108 761.5 108Z" fill="#DADADA"/>
<path d="M797 12H798V11H797V12ZM696 12V11H695V12H696ZM797 42H796V43H797V42ZM827 42H828V41H827V42ZM827 143V144H828V143H827ZM726 143H725V144H726V143ZM726 113H727V112H726V113ZM696 113H695V114H696V113ZM797 11H696V13H797V11ZM798 42V12H796V42H798ZM827 41H797V43H827V41ZM828 143V42H826V143H828ZM726 144H827V142H726V144ZM725 113V143H727V113H725ZM696 114H726V112H696V114ZM695 12V113H697V12H695ZM790 78.5C790 94.2401 777.24 107 761.5 107V109C778.345 109 792 95.3447 792 78.5H790ZM761.5 50C777.24 50 790 62.7599 790 78.5H792C792 61.6553 778.345 48 761.5 48V50ZM733 78.5C733 62.7599 745.76 50 761.5 50V48C744.655 48 731 61.6553 731 78.5H733ZM761.5 107C745.76 107 733 94.2401 733 78.5H731C731 95.3447 744.655 109 761.5 109V107Z" fill="black" mask="url(#path-7-inside-2)"/>
</g>
</g>
</svg>
