<svg width="828" height="143" viewBox="0 0 828 143" fill="none" xmlns="http://www.w3.org/2000/svg">
<g id="nested-frame">
<g id="Frame 1">
<rect id="rectangle" x="133.5" y="43.5" width="99" height="99" fill="#DADADA" stroke="black" stroke-linecap="square"/>
<circle id="circle" cx="313" cy="93" r="49.5" fill="#DADADA" stroke="black" stroke-linecap="square"/>
</g>
<g id="donut">
<mask id="path-3-inside-1" fill="white">
<path fill-rule="evenodd" clip-rule="evenodd" d="M617 143C644.614 143 667 120.614 667 93C667 65.3858 644.614 43 617 43C589.386 43 567 65.3858 567 93C567 120.614 589.386 143 617 143ZM617 113C628.046 113 637 104.046 637 93C637 81.9543 628.046 73 617 73C605.954 73 597 81.9543 597 93C597 104.046 605.954 113 617 113Z"/>
</mask>
<path fill-rule="evenodd" clip-rule="evenodd" d="M617 143C644.614 143 667 120.614 667 93C667 65.3858 644.614 43 617 43C589.386 43 567 65.3858 567 93C567 120.614 589.386 143 617 143ZM617 113C628.046 113 637 104.046 637 93C637 81.9543 628.046 73 617 73C605.954 73 597 81.9543 597 93C597 104.046 605.954 113 617 113Z" fill="#DADADA"/>
<path d="M666 93C666 120.062 644.062 142 617 142V144C645.167 144 668 121.167 668 93H666ZM617 44C644.062 44 666 65.938 666 93H668C668 64.8335 645.167 42 617 42V44ZM568 93C568 65.938 589.938 44 617 44V42C588.833 42 566 64.8335 566 93H568ZM617 142C589.938 142 568 120.062 568 93H566C566 121.167 588.833 144 617 144V142ZM636 93C636 103.493 627.493 112 617 112V114C628.598 114 638 104.598 638 93H636ZM617 74C627.493 74 636 82.5066 636 93H638C638 81.402 628.598 72 617 72V74ZM598 93C598 82.5066 606.507 74 617 74V72C605.402 72 596 81.402 596 93H598ZM617 112C606.507 112 598 103.493 598 93H596C596 104.598 605.402 114 617 114V112Z" fill="black" mask="url(#path-3-inside-1)"/>
</g>
<path id="fractured" d="M507.707 41.6836L536.5 1.55453V141.549L501.949 97.3509L507.707 41.6836ZM501.8 98.7848L535.974 142.5H466H465.728L450.787 125.263L501.296 98.1398L501.8 98.7848ZM500.671 97.3403L450.116 124.488L450.085 124.453L437.726 110.194L483.411 75.2611L500.671 97.3403ZM436.93 110.803L449.256 125.023L423.845 142.5H423.5H395.477L436.93 110.803ZM506.817 41.2085L506.526 41.6148L483.483 73.7297L439.526 17.5H497H497.5V17V8.5V8V7.5V0.5H536.026L507.914 39.6793L506.817 41.2085ZM438 17.3297V43H394.5V8.5H417.397L438 17.3297ZM417 7.5H394.5V0.5H417V7.5ZM418 7.5V0.5H496.5V7.5H418Z" fill="#DADADA" stroke="black" stroke-linecap="square"/>
<g id="compound">
<mask id="path-6-inside-2" fill="white">
<path fill-rule="evenodd" clip-rule="evenodd" d="M697 12H798V42H828V143H727V113H697V12ZM762.5 108C778.792 108 792 94.7924 792 78.5C792 62.2076 778.792 49 762.5 49C746.208 49 733 62.2076 733 78.5C733 94.7924 746.208 108 762.5 108Z"/>
</mask>
<path fill-rule="evenodd" clip-rule="evenodd" d="M697 12H798V42H828V143H727V113H697V12ZM762.5 108C778.792 108 792 94.7924 792 78.5C792 62.2076 778.792 49 762.5 49C746.208 49 733 62.2076 733 78.5C733 94.7924 746.208 108 762.5 108Z" fill="#DADADA"/>
<path d="M798 12H799V11H798V12ZM697 12V11H696V12H697ZM798 42H797V43H798V42ZM828 42H829V41H828V42ZM828 143V144H829V143H828ZM727 143H726V144H727V143ZM727 113H728V112H727V113ZM697 113H696V114H697V113ZM798 11H697V13H798V11ZM799 42V12H797V42H799ZM828 41H798V43H828V41ZM829 143V42H827V143H829ZM727 144H828V142H727V144ZM726 113V143H728V113H726ZM697 114H727V112H697V114ZM696 12V113H698V12H696ZM791 78.5C791 94.2401 778.24 107 762.5 107V109C779.345 109 793 95.3447 793 78.5H791ZM762.5 50C778.24 50 791 62.7599 791 78.5H793C793 61.6553 779.345 48 762.5 48V50ZM734 78.5C734 62.7599 746.76 50 762.5 50V48C745.655 48 732 61.6553 732 78.5H734ZM762.5 107C746.76 107 734 94.2401 734 78.5H732C732 95.3447 745.655 109 762.5 109V107Z" fill="black" mask="url(#path-6-inside-2)"/>
</g>
<path id="polygon" d="M51.5 54L103 143H0L51.5 54Z" fill="#DADADA"/>
</g>
</svg>
