<svg width="100" height="100" viewBox="0 0 100 100" version="2.0" xmlns="http://www.w3.org/2000/svg" xmlns:xlink="http://www.w3.org/1999/xlink" xmlns:figma="http://www.figma.com/figma/ns">
<title>Rectangle</title>
<desc>Created using Figma 0.90</desc>
<g id="Canvas" transform="translate(487 261)" figma:type="canvas">
<g id="Rectangle" style="mix-blend-mode:normal;" figma:type="rounded-rectangle">
<use xlink:href="#path0_fill" transform="translate(-487 -261)" fill="#DADADA" style="mix-blend-mode:normal;"/>
<mask id="mask0_outline_ins">
<use xlink:href="#path0_fill" fill="white" transform="translate(-487 -261)"/>
</mask>
<g mask="url(#mask0_outline_ins)">
<use xlink:href="#path1_stroke_2x" transform="translate(-487 -261)" style="mix-blend-mode:normal;"/>
</g>
</g>
</g>
<defs>
<path id="path0_fill" d="M 0 0L 100 0L 100 100L 0 100L 0 0Z"/>
<path id="path1_stroke_2x" d="M 0 0L 0 -1L -1 -1L -1 0L 0 0ZM 100 0L 101 0L 101 -1L 100 -1L 100 0ZM 100 100L 100 101L 101 101L 101 100L 100 100ZM 0 100L -1 100L -1 101L 0 101L 0 100ZM 0 1L 100 1L 100 -1L 0 -1L 0 1ZM 99 0L 99 100L 101 100L 101 0L 99 0ZM 100 99L 0 99L 0 101L 100 101L 100 99ZM 1 100L 1 0L -1 0L -1 100L 1 100Z"/>
</defs>
</svg>
